<?xml version="1.0" encoding="utf-8"?>
<!-- Generator: Adobe Illustrator 26.0.3, SVG Export Plug-In . SVG Version: 6.00 Build 0)  -->
<svg version="1.0" id="Layer_1" xmlns="http://www.w3.org/2000/svg" xmlns:xlink="http://www.w3.org/1999/xlink" x="0px" y="0px"
	 viewBox="0 0 232 155" style="enable-background:new 0 0 232 155;" xml:space="preserve">
<style type="text/css">
	.st0{fill:none;}
</style>
<symbol  id="symbol-longchamp" viewBox="-132.3 -22.5 264.7 44.9">
	<path d="M-127.2,20.8h-5.1V-2.8h13.5v3.3h-8.3V20.8z"/>
	<path d="M-99.3,21.6c-5.5,0-9.9-5.6-9.9-12.5s4.4-12.5,9.9-12.5c5.5,0,9.9,5.6,9.9,12.5S-93.9,21.6-99.3,21.6z M-99.3-0.1
		c-2.7,0-4.9,4.1-4.9,9.1s2.2,9.1,4.9,9.1s4.9-4.1,4.9-9.1S-96.6-0.1-99.3-0.1z"/>
	<path d="M3.8,2.5l-4.1,2.3C-1.1,1.9-2.7,0-4.6,0c-2.7,0-4.9,4.1-4.9,9.1s2.2,9.1,4.9,9.1c1.8,0,3.3-1.7,4.2-4.2L3,17
		c-1.6,2.7-4.5,4.4-7.6,4.5c-5.5,0-9.9-5.6-9.9-12.5s4.4-12.5,9.9-12.5C-1.1-3.5,2.1-1,3.8,2.5L3.8,2.5z"/>
	<path d="M-35.6,7.1h2.9V1.9c-0.8-1.3-2.3-2.1-3.8-1.9c-2.7,0-4.9,4.1-4.9,9.1s2.2,9.1,4.9,9.1c1.7,0,3.2-1.6,4.1-4l3.4,3
		c-1.6,2.6-4.5,4.3-7.5,4.4c-5.5,0-9.9-5.6-9.9-12.5s4.4-12.5,9.9-12.5c3.3,0.2,6.3,1.6,8.6,4v8.8h-7.8L-35.6,7.1L-35.6,7.1z"/>
	<path d="M-63.5,8.1l-12.7,14.4V-2.9h3.9v13.2l12.8-13.9v24.5h-4L-63.5,8.1z"/>
	<path d="M29.5,11h-8.3v9.8h-4.7V-2.8h4.7V7.7h8.3V-2.8h4.7v23.6h-4.7V11z"/>
	<path d="M46.4-2.9h4l2,4.6H60l1.7-4.6h5.3L56.9,22.3L46.4-2.9z M54.1,4.9l2.7,7.1l2.5-7.1L54.1,4.9z"/>
	<path d="M79.4,22.5V-2.8h3.8V9.7l6.5-7.9l5.9,7.8V-2.8h4.9v25.2L90.1,8.8L79.4,22.5z"/>
	<path d="M124.3,20.8h-8.8V-3h4.9v6.8h4c4.5,0.1,8.1,3.9,8,8.5C132.4,16.9,128.8,20.7,124.3,20.8L124.3,20.8z M124.2,7.4h-3.9v10
		h3.9c2.1-0.7,3.5-2.8,3.5-5C127.7,10.1,126.3,8.1,124.2,7.4L124.2,7.4z"/>
	<path d="M21.7-14.9h1.5v-7.3h-1.5V-14.9z"/>
	<path d="M6.7-17.7c0.1,1.3-0.8,2.5-2.1,2.8h-5.3v-7.3h1.6v2h2.9l1.3-2h1.7l-1.5,2.4C6-19.4,6.5-18.6,6.7-17.7z M4.1-18.9H0.8v2.6
		h3.2C4.6-16.5,5-17,5-17.6C5-18.2,4.6-18.7,4.1-18.9L4.1-18.9z"/>
	<path d="M-38.3-14.9h-5.3v-7.3h1.6v2h2.8c1.8,0,3,1.1,3,2.5C-36.1-16.4-37-15.2-38.3-14.9z M-38.8-18.9h-3.2v2.7h3.2
		c0.5-0.2,0.9-0.7,0.9-1.3C-37.9-18.2-38.3-18.7-38.8-18.9L-38.8-18.9z"/>
	<path d="M-20.6-14.9l-3.1-7.3h1.5l0.8,1.8h3.7l0.9-1.8h1.7l-3.5,7.3C-18.7-14.9-20.6-14.9-20.6-14.9z M-20.9-19.2l1.2,2.8l1.4-2.8
		H-20.9z"/>
	<path d="M40.9-17.9c-2.5-0.1-2.4,0.6-2.4,0.8c0,0.2-0.1,1.1,1.8,1.2c1.1,0,2.2-0.3,3.1-0.9l0.6,1.1c-1.1,0.6-2.3,0.8-3.5,0.8
		c-0.2,0-3.7,0.1-3.5-2.3s3.8-2,4.9-2c0.5,0,0.9-0.3,1-0.9c0-0.1,0-0.2,0-0.3c-0.1-0.1-0.1-0.8-2.3-0.8c-1.2-0.1-2.3,0.3-3.1,1.1
		l-0.6-1.2c0,0,0.2-1.2,3.8-1.2s3.8,1.8,3.7,2.5C44.4-19.2,43.4-17.8,40.9-17.9L40.9-17.9z"/>
</symbol>
<use xlink:href="#symbol-longchamp"  width="264.7" height="44.9" x="-132.3" y="-22.5" transform="matrix(0.68 0 0 -0.68 116.2454 77.4506)" style="overflow:visible;"/>
<rect x="19" y="57" class="st0" width="194" height="41"/>
</svg>
