<?xml version="1.0" encoding="UTF-8" standalone="no"?>


<svg
   xmlns:dc="http://purl.org/dc/elements/1.1/"
   xmlns:cc="http://creativecommons.org/ns#"
   xmlns:rdf="http://www.w3.org/1999/02/22-rdf-syntax-ns#"
   xmlns:svg="http://www.w3.org/2000/svg"
   xmlns="http://www.w3.org/2000/svg"
   xmlns:sodipodi="http://sodipodi.sourceforge.net/DTD/sodipodi-0.dtd"
   xmlns:inkscape="http://www.inkscape.org/namespaces/inkscape"
   width="160.19998"
   height="15.30067"
   viewBox="0 0 42.386245 4.048302"
   version="1.1"
   id="svg428"
   inkscape:version="0.92.0 r15299"
   sodipodi:docname="marchon.svg">
  <defs
     id="defs422" />
  <sodipodi:namedview
     id="base"
     pagecolor="#ffffff"
     bordercolor="#666666"
     borderopacity="1.0"
     inkscape:pageopacity="0.0"
     inkscape:pageshadow="2"
     inkscape:zoom="5.6344222"
     inkscape:cx="79.599999"
     inkscape:cy="7.1499938"
     inkscape:document-units="mm"
     inkscape:current-layer="layer1"
     showgrid="false"
     fit-margin-top="0"
     fit-margin-left="0"
     fit-margin-right="0"
     fit-margin-bottom="0"
     units="px"
     inkscape:window-width="1280"
     inkscape:window-height="744"
     inkscape:window-x="-4"
     inkscape:window-y="-4"
     inkscape:window-maximized="1" />
  <metadata
     id="metadata425">
    <rdf:RDF>
      <cc:Work
         rdf:about="">
        <dc:format>image/svg+xml</dc:format>
        <dc:type
           rdf:resource="http://purl.org/dc/dcmitype/StillImage" />
        <dc:title></dc:title>
      </cc:Work>
    </rdf:RDF>
  </metadata>
  <g
     inkscape:label="Layer 1"
     inkscape:groupmode="layer"
     id="layer1"
     transform="translate(94.388214,-335.6649)">
    <g
       id="g452"
       transform="translate(0.13229058,-0.13228908)">
      <path
         id="path432"
         d="m -52.71634,336.19424 c 0,-0.0265 0.02646,-0.0529 0.05292,-0.0794 0.02646,-0.0265 0.05292,-0.0265 0.07937,-0.0529 0.02646,0 0.05292,-0.0265 0.07938,-0.0265 0.02646,0 0.05292,0 0.07937,0.0265 0.02646,0 0.05292,0.0265 0.07937,0.0529 0.02646,0.0265 0.05292,0.0529 0.05292,0.0794 0,0.0265 0.02646,0.0529 0.02646,0.10584 0,0.0265 0,0.0794 -0.02646,0.10583 0,0 -0.02646,0.0265 -0.02646,0.0529 -0.02646,0.0265 -0.05292,0.0265 -0.07937,0.0529 -0.02646,0.0265 -0.05292,0.0265 -0.07937,0.0265 -0.02646,0 -0.05292,0 -0.07937,-0.0265 -0.02646,-0.0265 -0.05292,-0.0265 -0.07937,-0.0529 -0.02646,-0.0265 -0.05292,-0.0529 -0.05292,-0.0794 -0.02646,-0.0265 -0.02646,-0.0529 -0.02646,-0.10583 -0.02646,-0.0265 -0.02646,-0.0529 0,-0.0794 m 0.05292,0.15875 c 0,0.0265 0.02646,0.0529 0.02646,0.0529 0.02646,0.0265 0.05292,0.0529 0.05292,0.0529 0.02646,0 0.05292,0.0265 0.07938,0.0265 0.02646,0 0.05292,0 0.07937,-0.0265 0.02646,0 0.05292,-0.0265 0.05292,-0.0265 0.02646,-0.0265 0.02646,-0.0265 0.02646,-0.0529 0,-0.0265 0.02646,-0.0529 0.02646,-0.0794 0,-0.0265 0,-0.0529 -0.02646,-0.0794 0,-0.0265 -0.02646,-0.0529 -0.02646,-0.0529 -0.02646,-0.0265 -0.02646,-0.0265 -0.05292,-0.0265 -0.02646,0 -0.05292,-0.0265 -0.07937,-0.0265 -0.02646,0 -0.05292,0 -0.07938,0.0265 -0.02646,0 -0.05292,0.0265 -0.05292,0.0265 -0.02646,0.0265 -0.02646,0.0265 -0.02646,0.0529 0,0.0265 -0.02646,0.0529 -0.02646,0.0794 0,0 0.02646,0.0265 0.02646,0.0529 m 0.05292,-0.18521 h 0.105833 c 0.02646,0 0.05292,0 0.07937,0.0265 0,0 0.02646,0.0265 0.02646,0.0529 v 0 c 0,0.0265 -0.02646,0.0529 -0.05292,0.0794 l 0.05292,0.10584 h -0.05292 l -0.05292,-0.0794 v 0 h -0.05292 v 0.0794 h -0.05292 z m 0.105833,0.10584 c 0.02646,0 0.05292,-0.0265 0.05292,-0.0265 v 0 c 0,-0.0265 -0.02646,-0.0265 -0.05292,-0.0265 h -0.05292 v 0.0794 h 0.05292 z m -0.47625,3.30729 -3.624791,-2.38125 v 2.38125 h -0.740834 v -3.54542 l 3.624792,2.38125 v -2.38125 h 0.740833 z m -8.519583,-0.0794 c -0.608542,0 -1.243542,-0.1852 -1.561042,-0.29104 0.449792,0.29104 1.031875,0.47625 1.693334,0.47625 1.402291,0 2.566458,-0.84666 2.566458,-1.87854 0,-1.03187 -1.137708,-1.87854 -2.566458,-1.87854 -0.661459,0 -1.243542,0.18521 -1.693334,0.47625 0.291042,-0.10583 0.9525,-0.29104 1.561042,-0.29104 0.978958,0 1.957917,0.71437 1.957917,1.69333 0,0.97896 -0.978959,1.69333 -1.957917,1.69333"
         class="st0"
         inkscape:connector-curvature="0"
         style="fill:#646569;stroke-width:0.26458332" />
      <path
         id="path434"
         d="m -63.246756,336.5382 h 1.058333 c -0.582083,0.23813 -1.005416,0.71438 -1.005416,1.27 0,0.55563 0.396875,1.03188 1.005416,1.27 h -1.058333 c -0.423333,-0.34396 -0.687917,-0.79375 -0.687917,-1.27 0,-0.47625 0.264584,-0.92604 0.687917,-1.27 m -31.141458,3.14854 h 0.740833 l 0.926042,-2.32833 1.613958,2.27542 1.666875,-2.27542 0.926042,2.32833 h 0.740833 l -1.481666,-3.75708 -1.825625,2.61937 -1.799167,-2.61937 z m 8.969375,-0.89958 h 2.38125 l 0.635,0.89958 h 0.79375 l -2.619375,-3.75708 -2.592917,3.75708 h 0.79375 z m 2.090208,-0.42333 h -1.799166 l 0.899583,-1.29646 z m 11.562292,0.39687 c -0.343959,0.29104 -0.820209,0.47625 -1.349375,0.47625 -1.005417,0 -1.825625,-0.635 -1.825625,-1.40229 0,-0.79375 0.820208,-1.40229 1.825625,-1.40229 0.529166,0 1.031875,0.18521 1.375833,0.47625 l 0.47625,-0.34396 c -0.449792,-0.37042 -1.11125,-0.60854 -1.852083,-0.60854 -1.402292,0 -2.54,0.84666 -2.54,1.87854 0,1.03187 1.137708,1.87854 2.566458,1.87854 0.740833,0 1.375833,-0.23812 1.852083,-0.58208 z m 2.010833,0.92604 h 0.740833 v -1.82562 h 2.910417 v 1.82562 h 0.714375 v -3.75708 h -0.714375 v 1.50812 h -2.910417 v -1.50812 h -0.740833 z m -7.672917,0 h 0.820209 l -1.349375,-1.50812 c 0.635,-0.13229 1.084791,-0.50271 1.084791,-1.08479 v 0 c 0,-0.29105 -0.132291,-0.58209 -0.370416,-0.7673 -0.264584,-0.23812 -0.714375,-0.39687 -1.27,-0.39687 h -1.957917 v 0.18521 3.59833 h 0.661458 v -1.53458 h 1.031875 z m -2.38125,-1.93146 v -1.40229 h 1.27 c 0.687917,0 1.031875,0.39688 1.031875,0.76729 v 0 c 0,0.37042 -0.396875,0.635 -1.031875,0.635 -0.02646,0 -1.27,0 -1.27,0 z"
         class="st0"
         inkscape:connector-curvature="0"
         style="fill:#646569;stroke-width:0.26458332" />
    </g>
  </g>
  <style
     id="style430"
     type="text/css">
	.st0{fill:#646569;}
</style>
</svg>
