<?xml version="1.0" encoding="utf-8"?>
<!-- Generator: Adobe Illustrator 27.0.0, SVG Export Plug-In . SVG Version: 6.00 Build 0)  -->
<svg version="1.1" id="Layer_1" xmlns="http://www.w3.org/2000/svg" xmlns:xlink="http://www.w3.org/1999/xlink" x="0px" y="0px"
	 viewBox="0 0 697.28 513.89" style="enable-background:new 0 0 697.28 513.89;" xml:space="preserve">
<style type="text/css">
	.st0{fill-rule:evenodd;clip-rule:evenodd;fill:#201553;}
	.st1{fill-rule:evenodd;clip-rule:evenodd;fill:#E41022;}
	.st2{fill-rule:evenodd;clip-rule:evenodd;fill:#FFFFFF;}
</style>
<g>
	<path class="st0" d="M199.86,127.03l142.1,0.06c0.77-0.37,105.66-0.18,124.02-0.17c5.93,0,12.03-0.15,17.94,0.03l-0.05,93.58
		l-141.99-0.01l-142.02,0.02v47h284.17V80.36c-1.26-0.49-31.47-0.21-35.47-0.21c-82.9,0-165.8,0-248.7,0V127.03z"/>
	<path class="st1" d="M341.88,220.51l141.99,0.01l0.05-93.58c-5.91-0.17-12-0.02-17.94-0.03c-18.37-0.02-123.25-0.21-124.02,0.17
		L341.88,220.51z"/>
	<polygon class="st2" points="199.86,220.53 341.88,220.51 341.96,127.09 199.86,127.03 	"/>
	<path class="st0" d="M308.93,278.81v61.5h9.02v-47.97c0.69,0.46,0.66,0.6,1.15,1.31c1.61,2.38,6.52,7.98,8.2,10.46l8.72,11.17
		c0.03,0.03,0.07,0.07,0.1,0.1c0.04,0.04,0.17,0.16,0.2,0.21c0.24,0.31,0.17,0.08,0.29,0.53h1.85c0.21-0.78,3.76-5.08,4.48-5.98
		l2.89-3.67c0.22-0.25,0.08-0.08,0.31-0.31l2.73-3.42c0.41-0.48,0.77-1.02,1.12-1.54l4.71-5.95c0.54-0.73,1.76-2.45,2.43-2.9v47.97
		h9.02v-62.12h-8.41l-2.27,2.85c-0.99,1.04-1.77,2.35-2.7,3.45l-3.13,3.84c-0.25,0.28-0.42,0.5-0.65,0.79L338.9,301.8
		c-0.26,0.32-0.43,0.43-0.68,0.75c-0.19,0.24-0.42,0.61-0.58,0.86c-0.6-0.4-0.78-0.84-1.28-1.38c-0.47-0.52-0.86-1-1.3-1.57
		l-16.99-21.35c-0.41-0.55-0.35-0.25-0.52-0.91l-6.77,0C309.86,278.18,308.93,277.94,308.93,278.81z"/>
	<path class="st0" d="M415.55,340.31h9.02v-47.97c0.03,0.04,0.08,0.05,0.09,0.11c0.02,0.09,0.16,0.18,0.19,0.22
		c0.08,0.09,0.22,0.27,0.28,0.34l11.59,14.85c0.28,0.34,0.38,0.38,0.68,0.76l3.48,4.51c0.45,0.67,0.7,0.8,1.2,1.47
		c0.41,0.55,0.81,1.02,1.14,1.52h1.64c1.49-2.22,4-5.13,5.71-7.41l8.54-10.93c0.04-0.05,0.15-0.18,0.19-0.22l4.21-5.22v47.97h9.02
		v-62.12h-8.41c-0.63,1.18-5.55,6.91-6.77,8.61l-5.68,7.03c-0.43,0.5-0.76,1.09-1.2,1.67l-3.69,4.51c-0.04,0.04-0.16,0.16-0.2,0.21
		c-0.79,0.84-1.97,2.78-2.55,3.2c-0.53-0.36-0.84-0.91-1.23-1.44l-17.65-22.12c-0.03-0.03-0.07-0.07-0.1-0.1
		c-0.56-0.59-0.92-0.84-1.11-1.56h-8.41V340.31z"/>
	<path class="st0" d="M235.74,332.73c-2.72,0-7.25-0.44-9.64-1.64c-1.36-0.68-2.88-1.08-4.6-2.37c-3.28-2.45-3.02-2.03-5.71-5.57
		c-0.9-1.18-1.52-2.36-2.09-3.65l-0.87-2c-0.25-0.64-0.14-0.39-0.31-1.12c-0.95-4.16-0.97-3.98-0.97-8.46c0-1.02,0.11-1.48,0.26-2.4
		c0.55-3.22,0.82-4.43,2.23-7.41l2.86-4.32c2.24-2.44,4.91-4.69,8.01-5.94c0.42-0.17,0.47-0.21,0.86-0.37
		c1.85-0.81,6.22-1.7,8.34-1.7c4.75,0,6.93,0.42,11.04,2.08c1.71,0.69,3.98,2.08,5.39,3.22l2,1.9c0.03,0.03,0.07,0.08,0.1,0.11
		c2.08,2.3,3.76,5.18,4.82,8.09c1.38,3.81,1.63,9.75,0.64,13.72c-0.19,0.74-0.36,1.58-0.62,2.25c-1.05,2.77-1.64,4.12-3.49,6.55
		c-1.99,2.63-4.82,5.14-7.87,6.48l-3.03,1.27C240.54,332.14,238.44,332.73,235.74,332.73L235.74,332.73z M202.11,308.53
		c0,5.03,0.95,9.35,2.84,13.97c0.26,0.64,0.38,0.76,0.61,1.24l1.8,3.12c0.2,0.3,0.19,0.34,0.36,0.67c0.36,0.69,0.36,0.54,0.78,1.06
		l2.7,3.25l4.25,3.54l4.98,2.81c0.54,0.25,0.79,0.3,1.34,0.51c0.43,0.16,0.99,0.41,1.46,0.59c1.37,0.51,3.04,1.07,4.52,1.22
		c0.85,0.09,1.01,0.11,1.81,0.24c5.56,0.94,11.77,0.42,17.04-1.47c0.42-0.15,0.33-0.09,0.81-0.22c1.63-0.46,3.32-1.34,4.8-2.17
		c2.48-1.38,4.74-3.14,6.75-5.14l2.69-3.05c1.56-1.74,2.92-4.8,3.91-6.95c1.65-3.57,2.57-8.6,2.57-12.4c0-3.19-0.58-7.13-1.58-10.11
		c-0.62-1.86-1.43-3.87-2.4-5.59l-1.04-1.83c-0.98-1.81-2.52-3.6-3.94-5.08c-1.15-1.2-2.63-2.03-3.83-3.14l-4.86-2.93
		c-1.98-1.04-4.32-1.65-6.5-2.31c-1.43-0.44-5.4-0.99-7-0.99c-2.28,0-4.85-0.17-7.06,0.32l-3.31,0.58c-0.56,0.14-0.85,0.31-1.4,0.44
		c-2.48,0.61-4.76,1.61-6.99,2.85c-1.13,0.63-2.57,1.31-3.54,2.2c-0.46,0.43-0.65,0.53-1.12,0.93l-6.63,7.51
		c-1.27,1.72-2.85,5.48-3.41,7.66C202.76,302.71,202.11,305.43,202.11,308.53z"/>
	<path class="st0" d="M387.87,381.93c0,1.87,0.24,3.32,0.53,5.21c0.11,0.74,0.11,1.26,0.24,1.81c0.72,3.04,1.7,5.94,3.29,8.61
		c0.22,0.38,0.08,0.15,0.28,0.54c0.88,1.71,3.38,4.95,4.84,6.24c3.88,3.41,5.09,4.12,9.48,6.3c0.72,0.36,1.94,0.84,2.83,1.07
		c1.08,0.28,1.79,0.56,3.07,0.82c1.07,0.22,1.93,0.55,3.33,0.57c1.02,0.01,1.07,0.14,1.85,0.2c2.51,0.2,8.46,0.08,10.75-0.31
		l6.93-1.48c0.66-0.17,0.73-0.26,1.23-0.41l7.54-2.92c-0.14-0.25-0.2-0.22-0.2-0.62v-25.63h-20.5v8.2h11.69v12.3
		c-4.4,2.11-14.1,3.24-18.82,2.01c-1.59-0.41-3.15-0.72-4.64-1.31c-1.49-0.58-2.67-1.18-3.93-2.02c-2.08-1.38-4.8-3.55-6.07-5.61
		l-2.16-3.79c-0.09-0.2-0.22-0.4-0.22-0.4c-0.2-0.39-0.06-0.05-0.25-0.57c-0.16-0.45-0.25-0.68-0.38-1.05
		c-1.24-3.46-1.54-7.55-1.02-11.22c0.46-3.23,1.29-6.9,3.3-9.61l2.12-2.8c0.33-0.36,0.07-0.07,0.38-0.44l2.05-2.05
		c0.98-0.91,2.3-1.85,3.52-2.43l8.67-2.81c3.04-0.33,7.14-0.32,9.99,0.32c0.52,0.12,0.87,0.22,1.31,0.33
		c0.53,0.13,0.94,0.15,1.56,0.29l7.88,2.78c5.69,2.5,4.51,4.62,4.51-6.56c0-0.59-0.35-0.67-0.78-0.86
		c-0.35-0.15-0.71-0.26-1.19-0.45l-5.94-2.26c-0.61-0.23-0.48-0.22-1.23-0.41c-5.94-1.48-8.88-2.07-15.26-1.76l-5.37,0.78
		c-0.58,0.15-0.9,0.18-1.51,0.33l-3.04,1.06c-0.62,0.25-0.89,0.29-1.49,0.56c-3.65,1.67-6.79,3.68-9.65,6.54l-5.25,6.85
		c-0.32,0.6-0.46,0.75-0.73,1.32c-0.02,0.04-0.04,0.1-0.06,0.14c-0.02,0.04-0.04,0.1-0.07,0.14l-1.1,2.38
		C388.7,373.66,387.87,377.83,387.87,381.93z"/>
	<polygon class="st0" points="93.86,412.47 103.08,412.47 103.08,385.62 136.71,385.62 136.71,412.47 145.73,412.47 145.73,350.56 
		136.71,350.56 136.71,377.42 103.08,377.42 103.08,350.56 93.86,350.56 	"/>
	<path class="st0" d="M551.48,377.62v-19.27c4.72,0,6.94-0.36,11.2,0.69l3.3,1.62c0.51,0.42,0.75,0.75,1.17,1.29
		c2.87,3.69,2.07,10.53-1.14,12.98C560.59,379.08,553.47,376.8,551.48,377.62L551.48,377.62z M542.46,412.47h9.02v-26.65
		c4.37,0,5.78-0.45,9.09,1.36l1.72,1.35c3.43,2.89,4.69,5.35,7.23,8.76l0.5,0.73c0.25,0.4,0.39,0.61,0.65,0.99l4.84,7.67
		c0.45,0.66,0.77,1.26,1.19,1.89l2.46,3.89h10.66l-2.43-3.72c-0.26-0.34-0.39-0.41-0.65-0.78l-2.89-4.28
		c-0.03-0.03-0.06-0.08-0.09-0.12c-0.03-0.03-0.07-0.08-0.09-0.11l-4.36-7.12c-0.33-0.45-0.34-0.48-0.65-0.99l-2.51-3.84
		c-0.96-1.58-4.34-5.63-5.89-6.82c-0.66-0.51-1.16-1.1-1.97-1.31v-0.41c1.1-0.26,3.01-1.49,3.96-2.19
		c3.89-2.88,6.09-8.01,6.09-12.77c0-1.34-0.31-2.74-0.53-3.98c-0.35-1.97-0.21-1.16-0.76-2.73c-1.65-4.7-5.06-7.37-9.5-9.16
		c-0.42-0.17-0.45-0.24-0.84-0.39c-2.12-0.83-5.99-1.17-8.26-1.17h-15.99V412.47z"/>
	<path class="st0" d="M477.05,412.47h35.88v-7.59c0-0.47-0.14-0.61-0.61-0.61h-26.24v-18.86h25.01v-8.41h-25.01v-18.25h25.42
		c0.47,0,0.62-0.14,0.62-0.62v-7.58h-35.06V412.47z"/>
	<path class="st0" d="M288.22,412.47h9.02v-28.5h23.17c0.47,0,0.62-0.14,0.62-0.61v-7.79h-23.78v-16.81h23.78v-8.2h-32.8V412.47z"/>
	<path class="st0" d="M119.07,286.39h20.5c0.47,0,0.62,0.14,0.62,0.61v53.3h9.02v-53.92h21.12v-8.2h-51.26V286.39z"/>
	<path class="st0" d="M533.03,307.3v33.01c10.18,0,9.05,0.67,9.02-2.05l-0.01-29.32c-0.03-2.39,0.09-1.31,1.73-3.6l9.05-11.66
		c0.03-0.03,0.07-0.08,0.09-0.11l5.99-7.75c0.34-0.5,0.74-1.08,1.14-1.52c0.88-0.98,1.55-1.94,2.33-3c0.62-0.83,1.97-2.13,2.23-3.1
		h-10.87c-0.19,0.71-4.22,5.66-5.01,6.68l-10.85,13.95c-0.45,0.53-0.18,0.33-0.75,0.48c-0.27-0.99-6-7.88-6.85-9.14l-6.38-8.38
		c-0.04-0.05-0.15-0.18-0.19-0.22c-0.22-0.26-0.38-0.44-0.56-0.67l-2.01-2.7h-10.66c0.3,1.13,2.69,3.64,3.37,4.63l15.82,20.47
		C531,304.75,531.97,306.6,533.03,307.3z"/>
	<polygon class="st0" points="226.71,412.47 263.21,412.47 263.21,404.27 235.74,404.27 235.74,350.56 226.71,350.56 	"/>
	<rect x="351.58" y="350.56" class="st0" width="9.02" height="61.91"/>
	<rect x="182.02" y="350.56" class="st0" width="9.02" height="61.91"/>
</g>
</svg>
