<?xml version="1.0" encoding="iso-8859-1"?>
<!-- Generator: Adobe Illustrator 25.2.0, SVG Export Plug-In . SVG Version: 6.00 Build 0)  -->
<svg version="1.1" id="Layer_1" xmlns="http://www.w3.org/2000/svg" xmlns:xlink="http://www.w3.org/1999/xlink" x="0px" y="0px"
	 viewBox="0 0 1000 1000" style="enable-background:new 0 0 1000 1000;" xml:space="preserve">
<g>
	<path style="fill-rule:evenodd;clip-rule:evenodd;fill:#FF0001;" d="M286.082,600.334v38.186c0,8.414-0.215,15.965-0.429,22.437
		c-0.215,6.472-0.644,12.944-1.074,19.201c2.148-0.216,4.51-0.216,7.088-0.216c2.577,0,5.584,0,8.806,0s6.228,0,8.806,0
		s4.94,0,7.088,0.216c-0.43-6.256-0.859-12.729-1.074-19.201c-0.429-6.472-0.429-14.023-0.429-22.437v-38.186v-7.982
		c0-1.294,0-2.373,0-3.236c0-0.863,0.215-1.726,0.429-2.157c1.933,0,4.296,0,7.088,0.215c2.792,0,5.799,0.216,9.02,0.432
		c3.222,0,6.444,0.216,9.665,0.648c3.222,0,6.228,0.431,8.806,0.647c-0.215-1.078-0.644-2.157-0.859-3.236
		c0-1.294-0.214-2.373-0.214-3.452c0-1.078,0.214-2.157,0.214-3.451c0.215-1.079,0.644-2.157,0.859-3.236
		c-4.081,0-7.732,0.216-11.383,0.216c-3.222,0.215-6.873,0.215-10.524,0.431c-3.436,0-7.517,0-12.027,0c-4.295,0-9.45,0-15.464,0
		c-6.014,0-11.383,0-15.679,0c-4.295,0-8.376,0-12.242,0c-3.436-0.216-7.088-0.216-10.739-0.431c-3.652,0-7.518-0.216-11.813-0.216
		c0.214,1.079,0.43,2.157,0.43,3.236c0.215,1.294,0.429,2.373,0.429,3.451c0,1.079-0.214,2.158-0.429,3.452
		c0,1.078-0.215,2.157-0.43,3.236c2.792-0.215,5.799-0.647,9.235-0.647c3.436-0.432,6.658-0.648,9.88-0.648
		c3.222-0.215,6.228-0.432,9.236-0.432c2.792-0.215,5.154-0.215,7.087-0.215c0.215,1.078,0.43,2.805,0.43,5.394
		C286.082,594.724,286.082,597.314,286.082,600.334L286.082,600.334z"/>
	<path style="fill-rule:evenodd;clip-rule:evenodd;fill:#FF0001;" d="M469.931,624.713c0,8.414-1.074,15.533-3.652,21.573
		c-2.362,6.256-5.584,11.219-9.45,15.102c-3.866,4.099-8.591,6.903-13.961,8.845c-5.155,1.942-10.739,3.02-16.538,3.02
		c-5.584,0-10.739-0.863-15.678-2.372c-4.94-1.51-9.236-3.884-12.887-7.336c-3.866-3.451-6.873-7.982-9.02-13.592
		c-2.148-5.394-3.222-12.297-3.222-20.495c0-6.473,0.859-12.513,2.577-18.338c1.933-5.825,4.725-10.787,8.376-15.102
		c3.652-4.315,8.162-7.552,13.316-9.924c5.155-2.59,11.169-3.884,17.827-3.884c6.228,0,11.813,1.079,17.182,3.021
		c5.155,1.941,9.665,4.746,13.316,8.414c3.866,3.668,6.658,8.198,8.806,13.376C468.857,612.199,469.931,618.24,469.931,624.713
		L469.931,624.713z M353.523,628.164c0,9.493,1.933,17.69,5.798,24.594c3.866,6.904,9.235,12.513,15.894,17.044
		c6.658,4.314,14.39,7.551,23.411,9.493c9.02,1.941,18.686,3.02,28.994,3.02c10.954,0,20.833-1.51,29.854-4.314
		c9.235-2.589,16.968-6.473,23.411-11.435c6.658-4.962,11.813-10.571,15.464-17.259c3.652-6.688,5.585-13.808,5.585-21.359
		c0-9.06-1.933-17.044-5.799-23.947c-3.866-6.904-9.02-12.513-15.678-17.044c-6.658-4.531-14.39-7.767-23.196-10.14
		c-9.021-2.157-18.686-3.235-28.995-3.235c-11.383,0-21.693,1.294-30.713,4.099c-9.235,3.021-17.182,6.904-23.626,11.866
		c-6.443,4.962-11.598,10.787-15.249,17.259C355.24,613.494,353.523,620.614,353.523,628.164L353.523,628.164z"/>
	<path style="fill-rule:evenodd;clip-rule:evenodd;fill:#FF0001;" d="M585.266,682.315c18.901,0,33.076-3.883,42.741-11.434
		c9.879-7.767,14.604-20.496,14.604-38.186c0-6.688,0.215-12.944,0.215-18.769c0.215-6.041,0.644-11.435,0.859-16.397
		c0.215-4.962,0.43-9.277,0.644-12.944c0.43-3.883,0.644-6.904,0.859-9.061c-1.718,0.216-3.222,0.432-4.94,0.648
		c-1.503,0-3.007,0-4.725,0c-1.503,0-3.007,0-4.725,0c-1.719-0.216-3.436-0.431-5.155-0.648c0.43,6.904,0.859,14.023,1.074,20.927
		c0.214,6.903,0.429,14.023,0.429,20.927c0,7.119-0.215,14.023-0.859,20.711c-0.43,6.472-1.933,12.297-4.296,17.259
		c-2.148,5.178-5.369,9.277-9.879,12.298c-4.296,3.02-10.524,4.531-18.256,4.531c-6.444,0-12.027-0.431-16.752-1.51
		c-4.725-1.079-8.806-3.02-12.242-6.041c-3.222-3.236-5.585-7.766-7.302-13.376c-1.719-5.609-2.577-13.16-2.577-22.437
		c0-8.629,0.215-17.259,0.429-25.673c0.215-8.63,1.074-17.691,2.363-27.615c-2.577,0.216-5.369,0.432-8.161,0.648
		c-2.577,0-5.369,0-7.947,0c-2.577,0-5.155,0-7.947,0c-2.577-0.216-5.369-0.431-7.947-0.648c0.215,2.59,0.429,6.256,0.644,11.435
		c0,4.962,0.215,11.65,0.215,19.848c0,2.805-0.215,5.394-0.215,7.983c0,2.589,0,5.177,0,7.982s0,5.825-0.215,9.061
		c0,3.02,0,6.688,0,10.787c0,7.119,1.504,13.376,4.511,18.338c3.007,4.962,7.302,9.06,12.672,12.513
		c5.155,3.02,11.383,5.394,18.471,6.688C569.158,681.453,577.105,682.315,585.266,682.315L585.266,682.315z"/>
	<path style="fill-rule:evenodd;clip-rule:evenodd;fill:#FF0001;" d="M734.536,596.019h3.006c1.289-3.236,2.363-6.041,3.007-8.198
		c1.073-2.157,2.148-4.531,3.222-6.904c-3.866-2.373-8.377-4.099-13.531-5.394c-5.369-1.294-11.383-1.941-18.471-1.941
		c-5.798,0-11.383,0.647-16.537,2.157c-5.369,1.294-9.88,3.452-13.96,6.257c-3.866,2.589-7.088,6.04-9.665,10.14
		c-2.362,4.099-3.436,8.63-3.436,14.023c0,5.825,1.289,10.571,4.295,14.239c2.793,3.668,6.444,6.904,10.524,9.277
		c4.296,2.59,9.021,4.747,14.176,6.689c4.94,1.726,9.664,3.452,13.96,5.394c4.295,1.941,7.731,4.098,10.739,6.472
		c2.792,2.373,4.295,5.61,4.295,9.493c0,4.314-1.933,7.982-5.799,11.002c-3.651,3.021-9.235,4.531-16.967,4.531
		c-3.866,0-7.517-0.431-10.524-1.294c-3.222-0.863-5.799-2.157-7.947-3.668c-2.362-1.51-4.081-3.235-5.584-5.177
		c-1.289-1.942-2.363-4.099-2.792-6.256h-3.652c-0.859,3.452-1.503,6.472-2.363,9.493c-1.073,3.02-2.148,6.256-3.436,9.708
		c3.007,1.726,7.088,3.236,12.457,4.315c5.584,1.294,11.813,1.942,18.9,1.942c7.732,0,14.82-0.863,21.048-2.373
		c6.228-1.726,11.813-3.883,16.323-6.903c4.51-3.021,7.947-6.688,10.523-10.787c2.363-4.315,3.652-8.845,3.652-14.023
		c0-5.825-1.503-10.571-4.51-14.239c-2.792-3.668-6.444-6.904-10.953-9.493c-4.296-2.589-9.021-4.746-14.176-6.473
		c-4.94-1.726-9.664-3.667-14.175-5.609c-4.295-1.942-8.161-4.099-10.953-6.473c-3.007-2.373-4.296-5.394-4.296-9.277
		c0-3.668,1.719-6.903,5.585-9.493c3.651-2.804,8.59-4.099,14.605-4.099C722.723,583.074,730.456,587.39,734.536,596.019
		L734.536,596.019z"/>
	<path style="fill-rule:evenodd;clip-rule:evenodd;" d="M472.509,361.509c0-1.942,1.718-3.668,3.865-3.668
		c1.933,0,3.652,1.726,3.652,3.668c0,2.157-1.719,3.883-3.652,3.883C474.227,365.392,472.509,363.666,472.509,361.509
		L472.509,361.509z"/>
	<path style="fill-rule:evenodd;clip-rule:evenodd;" d="M519.33,361.509c0-1.942,1.503-3.668,3.652-3.668
		c1.932,0,3.651,1.726,3.651,3.668c0,2.157-1.719,3.883-3.651,3.883C520.833,365.392,519.33,363.666,519.33,361.509L519.33,361.509z
		"/>
	<path style="fill-rule:evenodd;clip-rule:evenodd;" d="M496.348,385.456c0-2.157,1.719-3.667,3.652-3.667
		c2.148,0,3.866,1.51,3.866,3.667c0,1.942-1.719,3.668-3.866,3.668C498.067,389.123,496.348,387.398,496.348,385.456
		L496.348,385.456z"/>
	<path style="fill:none;stroke:#000000;stroke-width:1.1551;stroke-miterlimit:2.6131;" d="M489.047,473.047
		c0,0,11.812,12.513,10.523,31.93c0,0,0,36.46-42.955,37.323c0,0-42.956-2.373-41.237-46.384c0,0-0.86-24.163,30.283-40.128
		 M416.237,486.854c0,0-18.471-28.262,4.51-45.952c0,0,35.438-28.262,36.297-31.93l-11.383-25.889c0,0-33.505,6.472-33.935-24.379
		c0,0-0.429-32.361,37.156-23.084c0,0,23.196-18.77,52.836-17.906 M511.813,473.047c0,0-11.813,12.513-10.524,31.93
		c0,0,0,36.46,42.956,37.323c0,0,42.955-2.373,41.237-46.384c0,0,0.644-24.163-30.284-40.128 M584.622,486.854
		c0,0,18.471-28.262-4.51-45.952c0,0-35.652-28.262-36.297-31.93l11.383-25.889c0,0,33.505,6.472,33.935-24.379
		c0,0,0.43-32.361-37.156-23.084c0,0-23.41-18.77-52.835-17.906"/>
</g>
</svg>
